<?xml version="1.0" encoding="UTF-8" standalone="no"?>
<!-- Created with Inkscape (http://www.inkscape.org/) -->

<svg xmlns:dc="http://purl.org/dc/elements/1.1/" xmlns:cc="http://creativecommons.org/ns#" xmlns:rdf="http://www.w3.org/1999/02/22-rdf-syntax-ns#" xmlns:svg="http://www.w3.org/2000/svg" xmlns="http://www.w3.org/2000/svg" xmlns:sodipodi="http://sodipodi.sourceforge.net/DTD/sodipodi-0.dtd" xmlns:inkscape="http://www.inkscape.org/namespaces/inkscape" id="svg2985" version="1.1" inkscape:version="0.48.5 r10040" width="3300" height="1305" sodipodi:docname="Marvel-logo.png">
  <metadata id="metadata2991">
    <rdf:RDF>
      <cc:Work rdf:about="">
        <dc:format>image/svg+xml</dc:format>
        <dc:type rdf:resource="http://purl.org/dc/dcmitype/StillImage" />
        <dc:title></dc:title>
      </cc:Work>
    </rdf:RDF>
  </metadata>
  <defs id="defs2989" />
  <sodipodi:namedview pagecolor="#ffffff" bordercolor="#666666" borderopacity="1" objecttolerance="10" gridtolerance="10" guidetolerance="10" inkscape:pageopacity="0" inkscape:pageshadow="2" inkscape:window-width="1366" inkscape:window-height="706" id="namedview2987" showgrid="false" fit-margin-top="0" fit-margin-left="0" fit-margin-right="0" fit-margin-bottom="0" inkscape:zoom="0.24870652" inkscape:cx="1166.2702" inkscape:cy="731.35307" inkscape:window-x="-8" inkscape:window-y="-8" inkscape:window-maximized="1" inkscape:current-layer="svg2985" />
  <g id="g3017">
    <path id="path2999" d="M 0,652.5 0,0 l 1650,0 1650,0 0,652.5 0,652.5 -1650,0 -1650,0 0,-652.5 z" style="fill:#fdfdfd" />
    <path id="path3013" d="M 0,652.5 0,0 l 1650,0 1650,0 0,652.5 0,652.5 -1650,0 -1650,0 0,-652.5 z" style="fill:#e82126;fill-opacity:1" />
    <path id="path3011" d="M 1378.3438 103.90625 L 1377.6562 212.125 C 1377.2903 271.64149 1376.9633 487.30985 1376.9062 691.40625 C 1376.8444 914.06223 1376.4476 1061.1001 1375.9062 1059 C 1375.2308 1056.3789 1234.4581 130.7579 1231.3125 108.25 L 1230.7188 104 L 1099 104 L 967.25 104 L 965.28125 116.75 C 964.1909 123.7625 930.27644 347.18809 889.90625 613.25 L 816.5 1097 L 816.25 600.5 L 816 104 L 690.09375 104 L 564.21875 104 L 563.125 110.25 C 562.53322 113.6875 542.46189 237.775 518.53125 386 C 494.60061 534.225 474.65146 656.85 474.1875 658.5 L 473.34375 661.5 L 472.6875 658.5 C 472.33325 656.85 452.70071 532.425 429.03125 382 C 405.36179 231.575 385.75058 107.4875 385.46875 106.25 L 384.96875 104 L 258.96875 104 L 133 104 L 133 646.5 L 133 1189 L 232.5 1189 L 332 1189 L 332.25 930.1875 L 332.5 671.375 L 376.90625 928.9375 C 401.33124 1070.5972 421.5349 1187.0625 421.78125 1187.75 C 422.43612 1189.5776 526.59332 1189.5776 527.25 1187.75 C 527.49703 1187.0625 547.44443 1070.1966 571.59375 928.03125 L 615.5 669.53125 L 615.75 929.28125 L 616 1189 L 807.5 1189 C 964.41409 1189 999 1188.7576 999 1187.6875 C 999 1185.862 1020.8995 1027.0104 1021.5312 1024.25 L 1022.0312 1022 L 1098.5625 1022 C 1158.8578 1022 1175.1649 1022.2649 1175.5312 1023.25 C 1175.787 1023.9375 1181.0706 1061.4 1187.2812 1106.5 L 1198.5625 1188.5 L 1386.7812 1188.75 L 1575 1189 L 1575 1013.125 L 1575 837.21875 L 1577.25 836.6875 C 1583.1274 835.32003 1620.0089 830.66514 1620.5625 831.21875 C 1620.9086 831.56485 1642.4416 912.07568 1668.4375 1010.1562 L 1715.7188 1188.5 L 1813.4688 1188.75 C 1891.5486 1188.9537 1911.1314 1188.75 1910.75 1187.75 C 1910.4874 1187.0598 1882.5142 1093.125 1848.5938 979 C 1814.673 864.875 1786.7224 770.78979 1786.4688 769.9375 C 1786.163 768.91049 1788.9484 766.01467 1794.75 761.3125 C 1830.9303 731.98845 1866.2759 680.63421 1885.5625 629.34375 C 1898.2896 595.49766 1904.2441 564.22703 1904.4062 530.625 C 1904.4563 520.22792 1904.8311 513.95718 1905.2812 515.625 C 1905.8727 517.81577 2006.2286 1111.0343 2017.125 1176.75 L 2019.3125 1190 L 2134.9062 1189.3438 C 2198.4829 1188.9932 2250.562 1188.6861 2250.625 1188.625 C 2250.688 1188.564 2286.013 968.71185 2329.125 700.09375 L 2407.5 211.71875 L 2407.75 700.34375 L 2408 1189 L 2595.5 1189 L 2783 1189 L 2783 1091.5 L 2783 994 L 2694.25 993.75 L 2605.5 993.5 L 2605.25 869.25 L 2605 745 L 2694 745 L 2783 745 L 2783 646 L 2783 547 L 2694.25 546.75 L 2605.5 546.5 L 2605.25 424.25 L 2605 302 L 2694 302 L 2783 302 L 2783 203 L 2783 104 L 2504.25 104.25 L 2225.5 104.5 L 2180 432.1875 C 2154.9738 612.40788 2134.2779 760.06955 2134 760.34375 C 2133.7221 760.61794 2113.2387 613.06958 2088.5 432.4375 L 2043.5312 104 L 1943.25 104 C 1848.4124 104 1842.9975 104.0947 1843.0312 105.75 C 1843.0513 106.7125 1847.9118 145.8625 1853.8438 192.75 C 1859.7754 239.6375 1864.5474 278 1864.4375 278 C 1864.3276 278 1862.0539 274.05626 1859.375 269.25 C 1856.696 264.44374 1850.45 254.43225 1845.5 247 C 1796.2749 173.0903 1724.9857 124.94619 1641.9375 109.53125 C 1615.3149 104.58971 1617.5999 104.67755 1494.4062 104.28125 L 1378.3438 103.90625 z M 1575 298 L 1579.75 298 C 1587.8364 298.007 1603.0229 300.9324 1613.875 304.5625 C 1661.6659 320.54887 1692.6535 360.82314 1702.9062 420.28125 C 1707.4822 446.81786 1708.1239 481.65106 1704.5 507 C 1698.3087 550.30852 1680.82 586.77316 1653.8438 612.59375 C 1632.4182 633.10135 1608.9199 643.96382 1580.75 646.375 L 1575 646.84375 L 1575 472.4375 L 1575 298 z M 1099.75 390.03125 C 1099.8479 390.03581 1099.9193 390.35016 1099.9688 391 C 1100.0317 391.825 1112.5741 495.1 1127.875 620.5 C 1143.1759 745.9 1155.5089 848.8375 1155.2812 849.25 C 1155.0539 849.6625 1130.4101 850 1100.5 850 C 1070.5899 850 1045.9447 849.6625 1045.7188 849.25 C 1045.2314 848.36106 1098.4089 393.10852 1099.25 390.96875 C 1099.5 390.33286 1099.6521 390.02669 1099.75 390.03125 z " style="fill:white" />
    <path id="path2997" d="m 3182,1091.5 0,-97.5 -84,0 -84,0 0,-445 0,-445 -98.5,0 -98.5,0 0,542.5 0,542.5 182.5,0 182.5,0 0,-97.5 z" style="fill:white" />
  </g>
</svg>
